<svg id="Capa_1" enable-background="new 0 0 510 510" height="512" viewBox="0 0 510 510" width="512" xmlns="http://www.w3.org/2000/svg"><path d="m470.96 111.37v241.7h-431.92v-241.7c0-21.22 17.21-38.42 38.43-38.42h355.06c21.22 0 38.43 17.201 38.43 38.42z" fill="#dcf2ea"/><path d="m470.96 111.37v241.7h-215.96v-280.12h177.53c21.22 0 38.43 17.201 38.43 38.42z" fill="#b5e5d3"/><path d="m510 349.02v51.32c0 20.27-16.44 36.71-36.71 36.71h-436.58c-20.27 0-36.71-16.44-36.71-36.71v-51.32c0-5.52 4.48-10 10-10h171.08l73.92 30.98 73.92-30.98h171.08c5.52 0 10 4.48 10 10z" fill="#44446b"/><path d="m510 349.02v51.32c0 20.27-16.44 36.71-36.71 36.71h-218.29v-67.05l73.92-30.98h171.08c5.52 0 10 4.48 10 10z" fill="#35355e"/><path d="m328.92 339.019v28.71c0 11.22-9.09 20.31-20.31 20.31h-107.22c-11.22 0-20.31-9.09-20.31-20.31v-28.71z" fill="#ff3369"/><path d="m328.92 339.019v28.71c0 11.22-9.09 20.31-20.31 20.31h-53.61v-49.02z" fill="#db2556"/><path d="m180.942 215.57h-4.532v-24.531c0-8.284-6.716-15-15-15s-15 6.716-15 15v24.531h-19.923l7.104-46.129c1.261-8.188-4.354-15.848-12.542-17.108-8.184-1.258-15.848 4.354-17.108 12.542l-9.766 63.412c-.666 4.326.59 8.728 3.44 12.049 2.85 3.322 7.008 5.234 11.385 5.234h37.41v12.103c0 8.284 6.716 15 15 15s15-6.716 15-15v-12.103h4.532c8.284 0 15-6.716 15-15s-6.716-15-15-15z" fill="#ff3369"/><path d="m257.31 152.155h-4.62c-21.44 0-38.9 17.45-38.9 38.9v43.91c0 21.45 17.46 38.9 38.9 38.9h4.62c21.44 0 38.9-17.45 38.9-38.9v-43.91c0-21.449-17.46-38.9-38.9-38.9zm8.9 82.81c0 4.91-4 8.9-8.9 8.9h-4.62c-4.9 0-8.9-3.99-8.9-8.9v-43.91c0-4.9 4-8.9 8.9-8.9h4.62c4.9 0 8.9 4 8.9 8.9z" fill="#ff3369"/><g fill="#db2556"><path d="m296.21 191.055v43.91c0 21.45-17.46 38.9-38.9 38.9h-2.31v-30h2.31c4.9 0 8.9-3.99 8.9-8.9v-43.91c0-4.9-4-8.9-8.9-8.9h-2.31v-30h2.31c21.44 0 38.9 17.451 38.9 38.9z"/><path d="m401 215.57h-4.532v-24.531c0-8.284-6.716-15-15-15s-15 6.716-15 15v24.531h-19.923l7.104-46.129c1.261-8.188-4.354-15.848-12.542-17.108-8.189-1.256-15.848 4.354-17.108 12.542l-9.767 63.412c-1.397 9.077 5.633 17.283 14.825 17.283h37.41v12.103c0 8.284 6.716 15 15 15s15-6.716 15-15v-12.103h4.533c8.284 0 15-6.716 15-15s-6.716-15-15-15z"/></g></svg>