<svg id="Capa_1" enable-background="new 0 0 512 512" height="512" viewBox="0 0 512 512" width="512" xmlns="http://www.w3.org/2000/svg" xmlns:xlink="http://www.w3.org/1999/xlink"><linearGradient id="SVGID_1_" gradientUnits="userSpaceOnUse" x1="301.289" x2="301.289" y1="481" y2="86.5"><stop offset="0" stop-color="#ffe59a"/><stop offset="1" stop-color="#ffffd5"/></linearGradient><linearGradient id="SVGID_2_" gradientUnits="userSpaceOnUse" x1="195" x2="195" y1="391" y2="31"><stop offset="0" stop-color="#fd5900"/><stop offset="1" stop-color="#ffde00"/></linearGradient><g id="Chat"><g><g><path d="m484.174 406.814c18.236-27.301 27.826-58.506 27.826-90.814 0-79.257-56.446-147.442-134.217-162.129-4.383-.829-8.917.341-12.355 3.19-3.438 2.85-5.428 7.083-5.428 11.549v117.39c0 8.271-6.729 15-15 15h-148c-8.284 0-15 6.716-15 15 0 90.981 74.019 165 165 165 32.309 0 63.513-9.59 90.814-27.827l52.477 26.243c2.132 1.066 4.427 1.584 6.705 1.584 3.891 0 7.73-1.514 10.61-4.394 4.565-4.566 5.697-11.541 2.81-17.316zm-269.527-138.643c6.699-5.805 12.967-11.106 19.03-16.233 38.168-32.275 65.745-55.594 65.745-95.045 0-39.473-29.523-70.394-67.211-70.394-13.737 0-26.375 4.091-37.211 11.95-10.836-7.859-23.475-11.95-37.211-11.95-37.688 0-67.211 30.921-67.211 70.394 0 39.574 29.021 64.068 65.779 95.093 6.08 5.131 12.366 10.438 18.996 16.183 5.453 4.726 12.431 7.329 19.648 7.329s14.194-2.601 19.646-7.327z" fill="url(#SVGID_1_)"/></g></g><path d="m345 31h-300c-24.813 0-45 20.187-45 45v210c0 24.813 20.187 45 45 45h15v45c0 6.067 3.655 11.536 9.26 13.858 1.856.769 3.805 1.142 5.737 1.142 3.904 0 7.741-1.524 10.61-4.394l55.606-55.606h203.787c24.813 0 45-20.187 45-45v-210c0-24.813-20.187-45-45-45zm-121.008 209.484c-6.109 5.166-12.425 10.507-19.168 16.351-2.819 2.443-6.321 3.665-9.824 3.665s-7.005-1.221-9.824-3.665c-6.71-5.815-13.041-11.158-19.162-16.325-35.086-29.614-60.437-51.01-60.437-83.616 0-31.062 22.934-55.394 52.211-55.394 14.488 0 27.235 5.894 37.211 17.125 9.977-11.231 22.723-17.125 37.211-17.125 29.277 0 52.211 24.332 52.211 55.394.002 32.49-24.039 52.819-60.429 83.59z" fill="url(#SVGID_2_)"/></g></svg>