<svg height="512" viewBox="0 0 49 59" width="512" xmlns="http://www.w3.org/2000/svg"><g id="Page-1" fill="none" fill-rule="evenodd"><g id="050---MP3" fill-rule="nonzero" transform="translate(-2)"><g fill="#35495e"><path id="Shape" d="m35 14c-.5522847 0-1-.4477153-1-1v-1c0-.5522847.4477153-1 1-1s1 .4477153 1 1v1c0 .5522847-.4477153 1-1 1z"/><path id="Shape" d="m39 14c-.5522847 0-1-.4477153-1-1v-1c0-.5522847.4477153-1 1-1s1 .4477153 1 1v1c0 .5522847-.4477153 1-1 1z"/><path id="Shape" d="m43 14c-.5522847 0-1-.4477153-1-1v-1c0-.5522847.4477153-1 1-1s1 .4477153 1 1v1c0 .5522847-.4477153 1-1 1z"/><path id="Shape" d="m12 56c-.5522847 0-1-.4477153-1-1s.4477153-1 1-1c2.061 0 4-.565 4-1 0-.5522847.4477153-1 1-1s1 .4477153 1 1c0 2.855-5 3-6 3z"/><path id="Shape" d="m15.366 48c-1.6217807-.1636877-3.1841178-.6984956-4.566-1.563-.4621274-.2868919-.6101907-.8905461-.3332626-1.3587123.276928-.4681661.8772725-.6291248 1.3512626-.3622877 1.776 1.048 3.733 1.55 3.952 1.178.1820268-.3074271.5142369-.4943912.87149-.4904649.357253.0039263.6852738.1981466.8605.5095s.1710368.6925379-.01099.9999649c-.4490554.7314994-1.2690487 1.1509501-2.125 1.087z"/></g><path id="Shape" d="m5 51c3.866 0 7 1.791 7 4s-3.134 4-7 4z" fill="#3f5c6c"/><path id="Shape" d="m7.328 38.567c3.326 1.97 5.11 5.108 3.984 7.009s-4.735 1.844-8.061-.126z" fill="#3f5c6c"/><ellipse id="Oval" cx="5" cy="55" fill="#547580" rx="3" ry="4"/><ellipse id="Oval" cx="5.289" cy="42.008" fill="#547580" rx="4" ry="3" transform="matrix(.51 -.86 .86 .51 -33.55 25.148)"/><path id="Shape" d="m31 14c-.5522847 0-1-.4477153-1-1v-7c0-.161-.057-4-3-4-2.966 0-3 3.837-3 4 0 .55228475-.4477153 1-1 1s-1-.44771525-1-1c0-2.075 1.045-6 5-6s5 3.925 5 6v7c0 .5522847-.4477153 1-1 1z" fill="#7f8c8d"/><rect id="Rectangle-path" fill="#ff5364" height="46" rx="3" width="32" x="16" y="13"/><path id="Shape" d="m23 6c1.1045695 0 2 .8954305 2 2v5h-4v-5c0-1.1045695.8954305-2 2-2z" fill="#95a5a5"/><rect id="Rectangle-path" fill="#67b9cc" height="18" rx="2" width="24" x="20" y="17"/><path id="Shape" d="m48 19h2c.5522847 0 1 .4477153 1 1v14c0 .5522847-.4477153 1-1 1h-2z" fill="#df4d60"/><path id="Shape" d="m44 22.54v10.46c-.0032948 1.1032019-.8967981 1.9967052-2 2h-20c-1.1032019-.0032948-1.9967052-.8967981-2-2v-4.18c6.5116558-5.8551114 15.4550843-8.1953086 24-6.28z" fill="#2fa8cc"/><circle id="Oval" cx="32" cy="30" fill="#ecf0f1" r="1"/><path id="Shape" d="m40 31c-.5522847 0-1-.4477153-1-1-.0000001-3.8659932-3.1340068-6.9999999-7-6.9999999s-6.9999999 3.1340067-7 6.9999999c0 .5522847-.4477153 1-1 1s-1-.4477153-1-1c.0000001-4.9705627 4.0294373-8.9999998 9-8.9999998s8.9999999 4.0294371 9 8.9999998c0 .5522847-.4477153 1-1 1z" fill="#ecf0f1"/><path id="Shape" d="m36 31c-.5522847 0-1-.4477153-1-1 0-1.6568542-1.3431458-3-3-3s-3 1.3431458-3 3c0 .5522847-.4477153 1-1 1s-1-.4477153-1-1c0-2.7614237 2.2385763-5 5-5s5 2.2385763 5 5c0 .5522847-.4477153 1-1 1z" fill="#ecf0f1"/><path id="Shape" d="m34 55h-4c-.5522847 0-1-.4477153-1-1s.4477153-1 1-1h4c.5522847 0 1 .4477153 1 1s-.4477153 1-1 1z" fill="#59474e"/></g></g></svg>