<svg height="512pt" viewBox="-63 0 511 512" width="512pt" xmlns="http://www.w3.org/2000/svg"><path d="m262.070312 0h-240.960937c-11.382813 0-20.609375 9.226562-20.609375 20.605469v470.785156c0 11.378906 9.226562 20.605469 20.609375 20.605469h343.84375c11.378906 0 20.605469-9.226563 20.605469-20.605469v-375.605469c0-5.742187-2.398438-11.226562-6.613282-15.125l-102.882812-95.179687c-3.804688-3.523438-8.804688-5.480469-13.992188-5.480469zm0 0" fill="#d9e7ec"/><path d="m385.5625 115.785156v375.609375c0 11.375-9.230469 20.605469-20.605469 20.605469h-29.007812c11.386719 0 20.609375-9.230469 20.609375-20.605469v-411.445312l22.390625 20.710937c4.214843 3.902344 6.613281 9.386719 6.613281 15.125zm0 0" fill="#c5d3dd"/><path d="m378.402344 100.21875h-85.941406c-10.320313 0-18.679688-8.359375-18.679688-18.679688v-77.878906c.789062.539063 1.5625 1.148438 2.28125 1.820313l78.390625 72.519531zm0 0" fill="#8d9ca8"/><path d="m280.136719 210.027344c0 48.105468-39 87.105468-87.105469 87.105468s-87.101562-39-87.101562-87.105468c0-48.105469 38.996093-87.101563 87.101562-87.101563s87.105469 38.996094 87.105469 87.101563zm0 0" fill="#ea4444"/><path d="m280.136719 210.027344c0 48.109375-38.996094 87.105468-87.105469 87.105468-20.257812 0-38.910156-6.914062-53.699219-18.515624 9.097657 3.226562 18.886719 4.980468 29.089844 4.980468 48.097656 0 87.101563-39 87.101563-87.101562 0-27.847656-13.066407-52.644532-33.40625-68.589844 33.8125 11.964844 58.019531 44.214844 58.019531 82.121094zm0 0" fill="#d93131"/><path d="m231.339844 202.121094-49.230469-28.421875c-6.085937-3.511719-13.691406.878906-13.691406 7.90625v56.84375c0 7.027343 7.605469 11.417969 13.691406 7.90625l49.230469-28.421875c6.082031-3.511719 6.082031-12.296875 0-15.8125zm0 0" fill="#d9e7ec"/><path d="m231.335938 217.933594-49.222657 28.421875c-6.082031 3.515625-13.691406-.878907-13.691406-7.90625v-7.390625l56.519531-32.625 6.390625 3.6875c6.085938 3.515625 6.085938 12.300781.003907 15.8125zm0 0" fill="#c5d3dd"/><path d="m385.5625 350.492188v140.898437c0 11.386719-9.222656 20.609375-20.609375 20.609375h-343.84375c-11.375 0-20.609375-9.222656-20.609375-20.609375v-140.898437zm0 0" fill="#ea4444"/><g fill="#d9e7ec"><path d="m101.539062 435.941406c-1.308593 2.140625-2.972656 2.851563-4.632812 2.851563-1.546875 0-3.210938-.710938-4.277344-2.851563l-15.925781-30.179687v57.746093c0 2.734376-3.085937 4.160157-6.296875 4.160157-3.089844 0-6.296875-1.425781-6.296875-4.160157v-76.402343c0-4.632813 3.089844-6.296875 6.296875-6.296875 4.515625 0 7.011719 1.546875 9.980469 7.128906l16.636719 31.488281 16.871093-31.488281c2.972657-5.582031 5.347657-7.128906 9.863281-7.128906 3.328126 0 6.296876 1.664062 6.296876 6.296875v76.402343c0 2.734376-3.089844 4.160157-6.296876 4.160157-3.089843 0-6.296874-1.425781-6.296874-4.160157v-57.035156zm0 0"/><path d="m145.738281 384.851562c0-2.140624 1.902344-4.039062 4.875-4.039062h23.167969c14.613281 0 26.023438 7.007812 26.023438 26.136719v.953125c0 19.011718-11.765626 26.257812-26.738282 26.257812h-14.730468v29.351563c0 2.730469-3.089844 4.15625-6.296876 4.15625-3.089843 0-6.300781-1.425781-6.300781-4.15625zm12.597657 7.128907v32.199219h14.730468c8.792969 0 14.140625-4.988282 14.140625-15.445313v-1.425781c0-10.457032-5.347656-15.328125-14.140625-15.328125zm0 0"/><path d="m223.09375 419.1875h18.296875c2.613281 0 4.160156 2.378906 4.160156 5.109375 0 2.257813-1.308593 4.871094-4.160156 4.871094h-18.296875v27.328125h35.289062c2.613282 0 4.15625 2.613281 4.15625 5.703125 0 2.617187-1.304687 5.46875-4.15625 5.46875h-42.300781c-2.734375 0-5.585937-1.425781-5.585937-4.160157v-78.539062c0-2.734375 2.851562-4.160156 5.585937-4.160156h42.300781c2.851563 0 4.15625 2.851562 4.15625 5.464844 0 3.089843-1.542968 5.703124-4.15625 5.703124h-35.289062zm0 0"/><path d="m297.355469 391.980469c-8.910157 0-14.019531 4.871093-14.019531 15.328125v34.574218c0 10.457032 5.109374 15.328126 14.019531 15.328126 8.792969 0 14.140625-4.871094 14.140625-15.328126v-9.742187h-12c-2.613282 0-4.042969-2.496094-4.042969-5.109375 0-2.375 1.429687-4.988281 4.042969-4.988281h20.4375c2.613281 0 4.15625 2.019531 4.15625 4.277343v15.5625c0 19.25-11.761719 26.5-26.734375 26.5-15.089844 0-26.613281-7.25-26.613281-26.5v-34.574218c0-19.25 11.761718-26.496094 26.257812-26.496094 15.921875 0 27.089844 8.554688 27.089844 21.976562 0 4.875-2.136719 6.0625-6.296875 6.0625-3.324219 0-6.179688-1.070312-6.296875-4.15625-.714844-6.894531-3.800782-12.714843-14.140625-12.714843zm0 0"/></g><path d="m385.5625 350.496094v140.894531c0 11.386719-9.222656 20.609375-20.609375 20.609375h-28.996094c11.386719 0 20.609375-9.222656 20.609375-20.609375v-140.894531zm0 0" fill="#d93131"/></svg>