<svg id="Capa_1" enable-background="new 0 0 510.033 510.033" height="512" viewBox="0 0 510.033 510.033" width="512" xmlns="http://www.w3.org/2000/svg"><path id="XMLID_104_" d="m0 30.398h510.033v365.555h-510.033z" fill="#bfe1ff"/><path id="XMLID_387_" d="m255.033 30.398h255v365.555h-255z" fill="#87c7ff"/><path id="XMLID_174_" d="m302.533 124.85v111.018c0 25.283 38.009 36.6 75.677 36.6s75.676-11.317 75.676-36.6v-111.018z" fill="#4a98f7"/><path id="XMLID_175_" d="m378.21 88.25c-37.668 0-75.677 11.317-75.677 36.6s38.009 36.6 75.677 36.6 75.676-11.317 75.676-36.6-38.008-36.6-75.676-36.6z" fill="#2864f0"/><path id="XMLID_1251_" d="m238.928 379.762h30v84.873h-30z" fill="#afb4c8"/><path id="XMLID_1242_" d="m89.014 449.635h332.006v30h-332.006z" fill="#cdd2e1"/><g fill="#4a98f7"><path id="XMLID_1307_" d="m86.134 162.334c2.533 0 5.977.776 10.235 2.307 4.374 1.574 8.476 3.393 12.188 5.405l1.852 1.003 9.818-20.574-1.499-.949c-4.029-2.552-8.828-4.606-14.264-6.107-5.421-1.496-10.936-2.254-16.392-2.254-9.264 0-16.8 2.143-22.398 6.369-5.773 4.356-8.701 10.327-8.701 17.747 0 4.128.99 7.742 2.942 10.741 1.934 2.975 4.384 5.217 7.28 6.664 2.655 1.33 5.604 2.526 8.762 3.556 3.13 1.023 6.07 1.795 8.74 2.296 2.37.444 4.362 1.094 5.921 1.93 1.039.558 1.565 1.124 1.565 1.682 0 .446 0 1.492-3.433 1.492-3.218 0-7.338-1.011-12.246-3.005-4.958-2.013-9.121-4.404-12.374-7.106l-1.949-1.618-10.191 20.62 1.302 1c4.629 3.557 10.175 6.357 16.482 8.326 6.273 1.959 12.593 2.953 18.783 2.953 8.582 0 15.846-1.977 21.59-5.875 5.989-4.064 9.025-10.104 9.025-17.951 0-4.24-.982-7.973-2.92-11.094-1.928-3.105-4.373-5.451-7.269-6.973-2.666-1.399-5.614-2.663-8.762-3.756-3.134-1.088-6.077-1.912-8.752-2.449-2.38-.475-4.38-1.143-5.945-1.984-.584-.313-1.564-.936-1.564-1.583.002-.243.002-.813 2.174-.813z"/><path id="XMLID_1311_" d="m196.311 206.829c-3.898 2.835-7.158 4.273-9.688 4.273-.754 0-1.465-.203-2.144-.615 5.56-2.842 10.109-6.863 13.552-11.983 3.991-5.935 6.015-12.805 6.015-20.419 0-10.555-3.772-19.403-11.213-26.299-7.399-6.854-16.864-10.33-28.132-10.33-11.269 0-20.732 3.458-28.127 10.277-7.443 6.862-11.218 15.728-11.218 26.352 0 10.205 3.477 18.855 10.334 25.712 6.545 6.545 14.913 10.28 24.888 11.113 1.957 4.767 4.928 8.658 8.845 11.58 4.279 3.192 9.25 4.811 14.775 4.811 3.771 0 7.736-.742 11.786-2.205 4.065-1.47 7.526-3.44 10.288-5.856l1.223-1.069-9.366-16.665zm-19.351-28.647c0 4.129-1.171 7.474-3.578 10.226-2.34 2.674-5.085 3.974-8.39 3.974-3.395 0-6.262-1.313-8.767-4.016-2.546-2.746-3.783-6.077-3.783-10.183 0-4.102 1.22-7.399 3.728-10.079 2.474-2.642 5.359-3.926 8.822-3.926 3.374 0 6.136 1.27 8.442 3.882 2.373 2.688 3.526 5.999 3.526 10.122z"/><path id="XMLID_1312_" d="m240.323 191.411v-49.276h-26.504v71.997h54.828v-22.721z"/></g><path id="XMLID_176_" d="m0 296.635h510.033v99.319h-510.033z" fill="#cdd2e1"/><path id="XMLID_1238_" d="m240.033 296.635h30v34.66h-30z" fill="#afb4c8"/><path id="XMLID_364_" d="m255.033 379.762h13.895v84.873h-13.895z" fill="#7e8596"/><path id="XMLID_386_" d="m255.033 449.635h165.986v30h-165.986z" fill="#afb4c8"/><path id="XMLID_388_" d="m255.033 296.635h255v99.319h-255z" fill="#afb4c8"/><path id="XMLID_1110_" d="m255.033 296.635h15v34.66h-15z" fill="#7e8596"/><path id="XMLID_1155_" d="m255.033 191.411h13.614v22.721h-13.614z" fill="#2864f0"/></svg>